<svg width="16" height="17" viewBox="0 0 16 17" fill="none" xmlns="http://www.w3.org/2000/svg">
<path fill-rule="evenodd" clip-rule="evenodd" d="M11.0003 13.781C11.7644 13.781 12.4338 13.5285 12.9728 12.9673C13.2868 12.6363 13.4822 12.2491 13.4822 11.8675C13.4822 11.5869 13.3697 11.3176 13.0913 11.1268L11.2728 9.90354C10.9943 9.72398 10.7633 9.6342 10.5501 9.6342C10.2835 9.6342 10.0407 9.78009 9.76817 10.0326L9.3476 10.4254C9.28244 10.4871 9.19952 10.5152 9.12251 10.5152C9.03366 10.5152 8.9448 10.4815 8.88557 10.4535C8.51831 10.2683 7.89041 9.75764 7.30399 9.20773C6.72348 8.65782 6.18444 8.06302 5.99488 7.71512C5.96527 7.65339 5.92973 7.57483 5.92973 7.49066C5.92973 7.41772 5.95342 7.34477 6.01858 7.28304L6.43915 6.87342C6.69978 6.61529 6.85972 6.39084 6.85972 6.13272C6.85972 5.93071 6.75902 5.71187 6.56354 5.44814L5.28998 3.7479C5.08266 3.47856 4.79241 3.36072 4.47254 3.36072C4.08158 3.36072 3.67878 3.52906 3.32929 3.8489C2.75471 4.37076 2.5 5.01606 2.5 5.7287C2.5 7.33916 3.79725 9.2919 5.50915 10.908C7.22106 12.5296 9.30022 13.781 11.0003 13.781Z" fill="#FFFEFC"/>
</svg>
