<svg width="42" height="42" viewBox="0 0 42 42" fill="none" xmlns="http://www.w3.org/2000/svg">
<g clip-path="url(#clip0)">
<path d="M10.4393 29.6828L19.2457 20.8764L10.4374 12.0682C9.98695 11.6177 9.98687 10.8875 10.4372 10.4372C10.8876 9.98683 11.6178 9.98691 12.0682 10.4374L20.8765 19.2456L29.6828 10.4393C30.1332 9.98891 30.8634 9.98899 31.3138 10.4394C31.7643 10.8899 31.7643 11.6201 31.314 12.0704L22.5076 20.8768L31.3159 29.6851C31.7663 30.1355 31.7664 30.8657 31.3161 31.316C30.8657 31.7664 30.1355 31.7663 29.6851 31.3159L20.8768 22.5076L12.0705 31.314C11.6201 31.7643 10.8899 31.7642 10.4395 31.3138C9.98903 30.8633 9.98895 30.1331 10.4393 29.6828Z" fill="#4F4F4F"/>
</g>
<defs>
<clipPath id="clip0">
<rect width="29.5208" height="29.5272" rx="5" transform="matrix(-0.707107 0.707107 0.707107 0.707107 20.8744 0)" fill="white"/>
</clipPath>
</defs>
</svg>
