<svg width="32" height="33" viewBox="0 0 32 33" fill="none" xmlns="http://www.w3.org/2000/svg">
<path fill-rule="evenodd" clip-rule="evenodd" d="M22.0005 27.9932C23.5288 27.9932 24.8675 27.46 25.9456 26.2753C26.5735 25.5764 26.9645 24.7589 26.9645 23.9533C26.9645 23.361 26.7394 22.7923 26.1826 22.3895L22.5455 19.8068C21.9887 19.4277 21.5267 19.2382 21.1002 19.2382C20.567 19.2382 20.0813 19.5462 19.5363 20.0793L18.6952 20.9086C18.5649 21.0389 18.399 21.0982 18.245 21.0982C18.0673 21.0982 17.8896 21.0271 17.7711 20.9679C17.0366 20.5769 15.7808 19.4988 14.608 18.3378C13.447 17.1768 12.3689 15.921 11.9898 15.1865C11.9305 15.0562 11.8595 14.8903 11.8595 14.7126C11.8595 14.5586 11.9068 14.4046 12.0372 14.2743L12.8783 13.4094C13.3996 12.8645 13.7194 12.3906 13.7194 11.8456C13.7194 11.4191 13.518 10.9571 13.1271 10.4003L10.58 6.81061C10.1653 6.24195 9.58481 5.99316 8.94507 5.99316C8.16317 5.99316 7.35757 6.34858 6.65859 7.02386C5.50942 8.12564 5 9.48805 5 10.9926C5 14.3927 7.59451 18.5155 11.0183 21.9275C14.4421 25.3513 18.6004 27.9932 22.0005 27.9932Z" fill="#4F4F4F"/>
</svg>
