<svg width="30" height="40" viewBox="0 0 62 90" fill="none" xmlns="http://www.w3.org/2000/svg">
<path d="M31.0182 0.9729C13.9191 0.9729 0 14.1506 0 30.3388C0.00485956 35.2094 1.28471 40.0029 3.72509 44.2906L29.3101 88.1072C29.4763 88.3939 29.7208 88.633 30.0181 88.7995C30.3155 88.9659 30.6546 89.0536 31 89.0534C31.3458 89.0557 31.6858 88.9688 31.9835 88.8022C32.2812 88.6355 32.5254 88.3953 32.6899 88.1072L58.2931 44.2734C60.7277 39.9905 62.0014 35.2025 62 30.3388C62.0363 14.1506 48.1172 0.9729 31.0182 0.9729ZM31.0182 47.5076C31.0182 47.5076 12.738 36.0159 12.738 26.6229C12.738 19.862 17.2626 16.7999 22.8411 16.7999C26.2028 16.7999 29.1647 18.3998 31.0182 20.8598C31.9364 19.611 33.1589 18.5899 34.5823 17.8832C36.0057 17.1765 37.588 16.8049 39.1952 16.7999C44.7737 16.7999 49.2984 21.2039 49.2984 26.6229C49.2984 35.5858 31.0182 47.5076 31.0182 47.5076Z" fill="#FE8F7C"/>
<path d="M39.195 16.7999C37.5878 16.805 36.0055 17.1766 34.5821 17.8833C33.1587 18.59 31.9362 19.611 31.018 20.8599C29.1645 18.3998 26.2026 16.7999 22.841 16.7999C17.2624 16.7999 12.7378 19.8621 12.7378 26.623C12.7378 36.0159 31.018 47.5077 31.018 47.5077C31.018 47.5077 49.2982 35.5859 49.2982 26.623C49.2982 21.204 44.7735 16.7999 39.195 16.7999Z" fill="#FFFEFC"/>
</svg>
